<svg width="400" height="320" viewBox="0 0 400 320" fill="none" xmlns="http://www.w3.org/2000/svg">
  <defs>
    <linearGradient id="paint0_linear" x1="50" y1="30" x2="340" y2="310" gradientUnits="userSpaceOnUse">
      <stop stop-color="#845EF7" stop-opacity="0.9" />
      <stop offset="0.5" stop-color="#5F3DC4" stop-opacity="0.7" />
      <stop offset="1" stop-color="#38D9A9" stop-opacity="0.7" />
    </linearGradient>
    <linearGradient id="paint1_linear" x1="140" y1="80" x2="260" y2="240" gradientUnits="userSpaceOnUse">
      <stop stop-color="#FFE066" />
      <stop offset="1" stop-color="#FAA2C1" />
    </linearGradient>
    <filter id="shadow" x="0" y="0" width="400" height="320" filterUnits="userSpaceOnUse">
      <feDropShadow dx="0" dy="18" stdDeviation="22" flood-color="#5f3dc4" flood-opacity="0.15" />
    </filter>
  </defs>
  <rect x="24" y="32" width="352" height="256" rx="48" fill="url(#paint0_linear)" filter="url(#shadow)" />
  <g transform="translate(60, 70)">
    <path d="M90 120C140 150 210 150 260 120" stroke="white" stroke-width="6" stroke-linecap="round" />
    <circle cx="80" cy="70" r="38" fill="white" fill-opacity="0.9" />
    <circle cx="240" cy="54" r="32" fill="white" fill-opacity="0.85" />
    <path d="M98 58C103 52 112 52 117 58" stroke="#845EF7" stroke-width="5" stroke-linecap="round" />
    <path d="M224 44C229 38 238 38 243 44" stroke="#5F3DC4" stroke-width="5" stroke-linecap="round" />
    <path d="M115 94C130 104 146 104 161 94" stroke="#38D9A9" stroke-width="6" stroke-linecap="round" />
    <path d="M198 82C211 92 225 92 238 82" stroke="#FFE066" stroke-width="6" stroke-linecap="round" />
    <path d="M150 158C172 188 228 188 250 158" stroke="url(#paint1_linear)" stroke-width="8" stroke-linecap="round" />
    <circle cx="152" cy="162" r="10" fill="#845EF7" />
    <circle cx="248" cy="162" r="10" fill="#38D9A9" />
  </g>
  <g transform="translate(40, 36)">
    <text x="80" y="40" fill="white" font-size="26" font-family="'Poppins', 'Arial', sans-serif" font-weight="600">Beauty Time</text>
    <text x="80" y="70" fill="white" font-size="16" font-family="'Poppins', 'Arial', sans-serif" opacity="0.8">Подчеркните индивидуальность</text>
  </g>
</svg>
