<svg xmlns="http://www.w3.org/2000/svg" viewBox="0 0 512 512">
  <circle cx="256" cy="256" r="212" fill="none" stroke="#ffffff" stroke-width="28" stroke-linecap="round" />
  <path fill="#ffffff" d="M209.6 134.1c-56.7 18.3-95 70-95 128.5 0 40.8 17.5 77.6 49 102.7-22 7.3-38.5 25-44.8 48.3-3.8 13.9-5.4 29.4-5.2 45.4h142.6v-77.5c28.9-13.3 51.8-39.1 61.4-70.1 12.2-39.2 4.5-82.8-20.4-115.9-21.6-28.8-53.6-48.2-87.6-61.4z"/>
  <path fill="#ffffff" d="M308.5 118.2c-69.4 5.1-123.6 64-123.6 133.7 0 5.8 0.3 11.4 1 16.9 8.8-9 19.3-16.1 31.1-20.7 5.4-25.3 17.6-47.8 35.6-65.5 5.1 18 18 32.9 35 39.9-29.8 33.3-45.6 75.6-45.6 119.6 0 6.7 0.4 13.3 1.1 19.7h182.5c2.1-12.2 3.2-24.8 3.2-37.6 0-101.6-74.4-192.9-190.3-205.9z"/>
</svg>
