<svg width="400" height="400" viewBox="0 0 400 400" fill="none" xmlns="http://www.w3.org/2000/svg">
<defs>
<radialGradient id="grad" cx="50%" cy="50%" r="50%">
<stop offset="0%" stop-color="#ffffff" stop-opacity="0.8"/>
<stop offset="70%" stop-color="#cbbfff" stop-opacity="0.25"/>
<stop offset="100%" stop-color="#a68bff" stop-opacity="0.1"/>
</radialGradient>
<linearGradient id="lines" x1="0" y1="0" x2="1" y2="1">
<stop offset="0%" stop-color="#6a4df4" stop-opacity="0.35"/>
<stop offset="100%" stop-color="#ef70a8" stop-opacity="0.15"/>
</linearGradient>
</defs>
<rect width="400" height="400" fill="url(#grad)"/>
<g stroke="url(#lines)" stroke-width="0.6" opacity="0.4">
<path d="M0 40C80 32 120 24 200 0C280 24 320 32 400 40"/>
<path d="M0 120C90 110 120 96 200 72C280 96 310 110 400 120"/>
<path d="M0 200C70 200 120 176 200 152C280 176 330 200 400 200"/>
<path d="M0 280C80 288 120 304 200 328C280 304 320 288 400 280"/>
<path d="M0 360C70 368 120 384 200 400C280 384 330 368 400 360"/>
</g>
<g opacity="0.45">
<circle cx="60" cy="100" r="18" fill="#ffffff"/>
<circle cx="320" cy="60" r="12" fill="#ffffff"/>
<circle cx="340" cy="320" r="20" fill="#ffffff"/>
<circle cx="120" cy="300" r="14" fill="#ffffff"/>
</g>
</svg>
